<svg version="1.1" class="scroll-up-l" id="ryukochan" xmlns="http://www.w3.org/2000/svg" xmlns:xlink="http://www.w3.org/1999/xlink" x="0px" y="0px" viewBox="0 0 158 168" xml:space="preserve">
	<style type="text/css">
		.st0{fill:#FFFFFF;}
		.st1{fill:none;stroke:#000000;stroke-width:7;stroke-miterlimit:10;}
		.st2{fill:#040000;}
	</style>
		<path class="st0" d="M7,97.1L7,97.1c4.2-5.1,11.7-5.8,16.7-1.6l3.1,2.6c-0.4-4-0.7-7.7-0.7-11c0-11.8,3.3-24.8,8.9-36.5c-7.4-2.4-12.6-9.4-12.4-17.7c0.3-9.5,8.1-17.2,17.6-17.3c6.4-0.1,12,3.1,15.2,8c6.4-5,11-6.7,20.8-7.2c6.7-0.3,14.1,0.2,21.6,2.5c1.8-8,8.9-14.1,17.5-14c9.7,0,17.7,7.8,17.9,17.5c0.1,5.7-2.4,10.8-6.5,14.2c9.3,10.1,15.7,24.4,15.7,43.8c0,48.4,26.8,76.3-3.4,76.3H63.3c-17,0-20,14.2-24.5-2.2c-1.7-6.2-3.5-13-5.2-20l-25-20.6C3.6,109.7,2.8,102.2,7,97.1z"/>
		<path class="st1" d="M7,97.1L7,97.1c4.2-5.1,11.7-5.8,16.7-1.6l3.1,2.6c-0.4-4-0.7-7.7-0.7-11c0-11.8,3.3-24.8,8.9-36.5c-7.4-2.4-12.6-9.4-12.4-17.7c0.3-9.5,8.1-17.2,17.6-17.3c6.4-0.1,12,3.1,15.2,8c6.4-5,11-6.7,20.8-7.2c6.7-0.3,14.1,0.2,21.6,2.5c1.8-8,8.9-14.1,17.5-14c9.7,0,17.7,7.8,17.9,17.5c0.1,5.7-2.4,10.8-6.5,14.2c9.3,10.1,15.7,24.4,15.7,43.8c0,48.4,26.8,76.3-3.4,76.3H63.3c-17,0-20,14.2-24.5-2.2c-1.7-6.2-3.5-13-5.2-20l-25-20.6C3.6,109.7,2.8,102.2,7,97.1z"/>
		<path class="st2" d="M33.1,36.1c0-2.2,1.2-4.4,2.6-5.8c1.4-1.4,3.7-2.4,5.8-2.4c2.5,0,5.2,1.5,6.6,3.3c-1.1,1.2-2.3,2.9-3.3,4.2c-1,1.3-2.7,2.1-3.7,3.5c-0.9,1.4-1.2,3.6-2.1,5c-1.5-0.5-3-2.1-3.9-3.4C34.3,39.3,33.1,37.7,33.1,36.1z"/>
		<path class="st2" d="M115.5,15.1c2.2,0,4.2,1.2,5.6,2.6s1.6,3.4,1.6,5.6c0,2.7-0.8,4.5-2.9,5.9c-1.9-1.4-3.6-2.6-5.6-3.8c-2-1.2-4-2.2-6.1-3.1c0.2-2,0.9-3.3,2.3-4.6C111.9,16.5,113.5,15.1,115.5,15.1z"/>
		<path class="st2" d="M61.1,96.5c2.8-0.7,2.9-0.5,5.7-1.2c2.8-0.7,3.1,0.3,5.9-0.4c2.8-0.7,2.6-1.7,5.5-2.4c2.8-0.7,2.8-0.7,5.7-1.4c2.8-0.7,3-0.1,5.8-0.8c2.8-0.7,2.9-0.5,5.8-1.2c1.5-0.4,1.9-2.2,1.5-3.7s-1.4-2.6-2.9-2.2c-2.8,0.7-2.8,1-5.6,1.7c-2.8,0.7-2.9,0.5-5.8,1.2c-2.8,0.7-3,0.2-5.8,1c-2.8,0.7-2.6,1.6-5.5,2.3c-2.8,0.7-3.1-0.2-5.9,0.5c-2.8,0.7-2.8,0.8-5.7,1.5c-1.5,0.4-2.8,2.3-2.4,3.9C57.8,96.7,59.6,96.9,61.1,96.5z"/>
		<path class="st2" d="M33.6,50.9c1.9-0.6,3.7-1.3,5.5-1.6c2-0.3,3.9-1.1,5.7-1c2,0.1,3.8,1.2,5.5,1.8c1.8,0.6,3.5,1.3,4.9,2.6c1.3,1.2,2.6,2.9,3.5,4.8c2.9,0.1,2.9-1,5.7-1.8c2.8-0.8,2.8-0.7,5.2-2.4c-0.2-2.1-0.2-3.6,0.3-5.4c0.5-1.9,1.8-3.5,3-5c1.2-1.5,2.7-2.6,4.4-3.7c1.5-1.1,3.2-1.9,5.1-2.7c1.7-0.8,3.5-1.2,5.5-1.8c2.1-0.6,4.1-1.4,6.2-1.7c2.2-0.3,4.4-1.2,6.5-1c2.2,0.2,4.4,1.1,6.3,2c1.9,0.9,3.7,2.3,5,4.2c1.2,1.6,1.8,3.7,2.5,6c0.6,2,0.4,3.9,0.5,5.9c0.1,2,0.6,4,0.2,6c-0.5,1.9-1.6,3.6-2.6,5.4c-0.9,1.7-1.5,3.9-2.8,5.3c-1.3,1.4-3.5,2-5.2,3c-1.7,1-3.1,2.7-5.1,3.2c-2.1,0.6-4.3,0.8-6.4,0.8c-2.2,0-4.3-0.4-6.4-1c-2.1-0.6-4-1.5-5.8-2.6c-1.8-1.1-3.4-2.6-4.8-4.1c-1.4-1.5-2.6-3.3-3.6-5.2c0-0.1,0.1,0.4,0,0.4c-2.9,0.8-3.1-0.1-5.9,0.8c-2.8,0.9-2.6,1.5-5.4,2.4c-0.1,0-0.3-0.2-0.3-0.1c0.3,2.1,0,4.2-0.3,6.3c-0.3,2.1-0.1,4.5-1,6.4c-0.9,1.9-2.2,3.8-3.6,5.4c-1.4,1.6-3.1,3.1-4.9,4.3c-1.7,1.1-4.2,1-6.2,1.7c-2,0.6-3.8,1.1-5.7,1.1c-2,0.1-4,0.2-5.9-0.3c-1.9-0.5-4-0.8-5.8-1.7c-1.7-0.9-2.9-2.7-4.4-4.1c-1.4-1.3-2.6-2.9-3.6-4.6c-1-1.7-1.8-3.4-2.3-5.3c-0.7-2.3-1.2-4.3-1.1-6.2c0.2-2.3,0.8-4.2,1.8-6.1c1.1-1.8,2.3-3.6,4.1-5c1.6-1.3,3.3-2.8,5.4-3.8C29,51.3,31.5,51.6,33.6,50.9z"/>
</svg>
