<svg version="1.1" id="svg01" xmlns="http://www.w3.org/2000/svg" xmlns:xlink="http://www.w3.org/1999/xlink" x="0px" y="0px" viewBox="-1 -1 305 155" xml:space="preserve">
  <path d="M299.5,152.5h-28c-2.2,0-4-1.8-4-4V6.5c0-2.2,1.8-4,4-4h28c2.2,0,4,1.8,4,4v142C303.5,150.7,301.7,152.5,299.5,152.5z"/>
  <path d="M261.5,152.5h-28c-2.2,0-4-1.8-4-4V6.5c0-2.2,1.8-4,4-4h28c2.2,0,4,1.8,4,4v142C265.5,150.7,263.7,152.5,261.5,152.5z"/>
  <path d="M223.5,152.5h-28c-2.2,0-4-1.8-4-4V6.5c0-2.2,1.8-4,4-4h28c2.2,0,4,1.8,4,4v142C227.5,150.7,225.7,152.5,223.5,152.5z"/>
  <path d="M185.5,152.5h-28c-2.2,0-4-1.8-4-4V6.5c0-2.2,1.8-4,4-4h28c2.2,0,4,1.8,4,4v142C189.5,150.7,187.7,152.5,185.5,152.5z"/>
  <path d="M147.5,152.5h-28c-2.2,0-4-1.8-4-4V6.5c0-2.2,1.8-4,4-4h28c2.2,0,4,1.8,4,4v142C151.5,150.7,149.7,152.5,147.5,152.5z"/>
  <path d="M109.5,152.5h-28c-2.2,0-4-1.8-4-4V6.5c0-2.2,1.8-4,4-4h28c2.2,0,4,1.8,4,4v142C113.5,150.7,111.7,152.5,109.5,152.5z"/>
  <path d="M71.5,152.5h-28c-2.2,0-4-1.8-4-4V6.5c0-2.2,1.8-4,4-4h28c2.2,0,4,1.8,4,4v142C75.5,150.7,73.7,152.5,71.5,152.5z"/>
  <path d="M33.5,152.5h-28c-2.2,0-4-1.8-4-4V6.5c0-2.2,1.8-4,4-4h28c2.2,0,4,1.8,4,4v142C37.5,150.7,35.7,152.5,33.5,152.5z"/>
  <g>
    <path d="M237,82.5h-17c-1.7,0-3-1.3-3-3v-77h23v77C240,81.2,238.7,82.5,237,82.5z"/>
    <path d="M198.9,82.5h-17c-1.7,0-3-1.3-3-3v-77h23v77C201.9,81.2,200.5,82.5,198.9,82.5z"/>
    <path d="M161.1,82.5h-17c-1.7,0-3-1.3-3-3v-77h23v77C164.1,81.2,162.8,82.5,161.1,82.5z"/>
    <path d="M85,82.5H68c-1.7,0-3-1.3-3-3v-77h23v77C88,81.2,86.7,82.5,85,82.5z"/>
    <path d="M47.2,82.5h-17c-1.7,0-3-1.3-3-3v-77h23v77C50.2,81.2,48.9,82.5,47.2,82.5z"/>
  </g>
</svg>
